# xmcd CD database file
#
# Track frame offsets:
#	150
#	9887
#	19102
#	29330
#	41701
#	53056
#	64262
#	77356
#	87159
#	99308
#	110652
#	123772
#
# Disc length: 1779 seconds
#
# Revision: 0
# Processed by: cddbd v1.5.2PL0 Copyright (c) Steve Scherf et al.
# Submitted via: CDex 1.70beta2
#
DISCID=8606f10c
DTITLE=Ifield, Frank - Cty - The Best of
DYEAR=1900
DGENRE=Country
TTITLE0=Hey Joe
TTITLE1=I Remember You
TTITLE2=Lovesick Blues
TTITLE3=I'm so Lonesome I Could Cry
TTITLE4=Hoebe Snow
TTITLE5=When my Blue Moon Turns to Gold
TTITLE6=Love Song of the waterfall
TTITLE7=Cattle Call
TTITLE8=Half as Much
TTITLE9=Oh, Lonesome Me
TTITLE10=Wolverton Mountain
TTITLE11=Long Gone Lonesome Blues
EXTD=
EXTT0=
EXTT1=
EXTT2=
EXTT3=
EXTT4=
EXTT5=
EXTT6=
EXTT7=
EXTT8=
EXTT9=
EXTT10=
EXTT11=
PLAYORDER=
